<svg width="48" height="48" viewBox="0 0 48 48" fill="none" xmlns="http://www.w3.org/2000/svg">
<g id="logo-instagram">
<path id="Vector" d="M32.7497 6.49969C35.0684 6.50661 37.2901 7.43077 38.9297 9.07034C40.5692 10.7099 41.4934 12.9316 41.5003 15.2503V32.7497C41.4934 35.0684 40.5692 37.2901 38.9297 38.9297C37.2901 40.5692 35.0684 41.4934 32.7497 41.5003H15.2503C12.9316 41.4934 10.7099 40.5692 9.07034 38.9297C7.43077 37.2901 6.50661 35.0684 6.49969 32.7497V15.2503C6.50661 12.9316 7.43077 10.7099 9.07034 9.07034C10.7099 7.43077 12.9316 6.50661 15.2503 6.49969H32.7497ZM32.7497 3H15.2503C8.5125 3 3 8.5125 3 15.2503V32.7497C3 39.4875 8.5125 45 15.2503 45H32.7497C39.4875 45 45 39.4875 45 32.7497V15.2503C45 8.5125 39.4875 3 32.7497 3Z" fill="white"/>
<path id="Vector_2" d="M35.3747 15.2505C34.8555 15.2505 34.348 15.0965 33.9163 14.8081C33.4846 14.5197 33.1482 14.1097 32.9495 13.63C32.7508 13.1504 32.6988 12.6226 32.8001 12.1134C32.9014 11.6042 33.1514 11.1364 33.5185 10.7693C33.8856 10.4022 34.3534 10.1522 34.8626 10.0509C35.3718 9.94964 35.8996 10.0016 36.3792 10.2003C36.8589 10.399 37.2689 10.7354 37.5573 11.1671C37.8457 11.5988 37.9997 12.1063 37.9997 12.6255C38.0004 12.9704 37.933 13.3121 37.8014 13.6309C37.6697 13.9497 37.4764 14.2394 37.2325 14.4833C36.9886 14.7272 36.6989 14.9205 36.3801 15.0522C36.0613 15.1838 35.7196 15.2512 35.3747 15.2505ZM24 16.9999C25.3845 16.9999 26.738 17.4104 27.8892 18.1796C29.0404 18.9488 29.9376 20.0421 30.4674 21.3213C30.9973 22.6004 31.1359 24.0079 30.8658 25.3659C30.5957 26.7238 29.929 27.9711 28.95 28.9501C27.971 29.9292 26.7236 30.5959 25.3657 30.866C24.0078 31.1361 22.6002 30.9975 21.3211 30.4676C20.042 29.9378 18.9487 29.0405 18.1795 27.8893C17.4103 26.7381 16.9997 25.3847 16.9997 24.0002C17.0017 22.1442 17.7398 20.3648 19.0522 19.0524C20.3646 17.74 22.144 17.0018 24 16.9999ZM24 13.5002C21.9233 13.5002 19.8932 14.116 18.1665 15.2697C16.4398 16.4235 15.094 18.0634 14.2993 19.982C13.5045 21.9006 13.2966 24.0118 13.7018 26.0486C14.1069 28.0854 15.1069 29.9563 16.5754 31.4248C18.0438 32.8932 19.9148 33.8933 21.9516 34.2984C23.9884 34.7036 26.0996 34.4956 28.0182 33.7009C29.9368 32.9062 31.5767 31.5604 32.7304 29.8337C33.8842 28.1069 34.5 26.0769 34.5 24.0002C34.5 21.2154 33.3938 18.5447 31.4246 16.5756C29.4555 14.6064 26.7848 13.5002 24 13.5002Z" fill="white"/>
</g>
</svg>
