<svg width="25" height="24" viewBox="0 0 25 24" fill="none" xmlns="http://www.w3.org/2000/svg">
<g id="call-outline">
<path id="Vector" d="M21.6406 17.5312C20.8963 16.7812 19.0935 15.6867 18.2188 15.2456C17.0797 14.6718 16.986 14.6249 16.0907 15.2901C15.4935 15.734 15.0964 16.1306 14.3975 15.9815C13.6986 15.8324 12.1799 14.992 10.85 13.6663C9.52018 12.3407 8.63096 10.7779 8.48143 10.0813C8.3319 9.38478 8.73502 8.99244 9.17471 8.39385C9.7944 7.5501 9.74752 7.40947 9.21784 6.27041C8.80487 5.38447 7.67846 3.59853 6.92565 2.85791C6.12034 2.06244 6.12034 2.20306 5.60143 2.41869C5.17898 2.59643 4.77369 2.81249 4.39065 3.06416C3.64065 3.56244 3.2244 3.97635 2.93331 4.59838C2.64221 5.22041 2.51143 6.67869 4.01471 9.40963C5.51799 12.1406 6.57268 13.537 8.75565 15.7138C10.9386 17.8907 12.6172 19.0612 15.0711 20.4374C18.1067 22.1376 19.2711 21.8062 19.895 21.5156C20.5189 21.2249 20.9347 20.8124 21.4339 20.0624C21.6862 19.68 21.9028 19.2752 22.0808 18.8531C22.2969 18.336 22.4375 18.336 21.6406 17.5312Z" stroke="black" stroke-width="1.5047" stroke-miterlimit="10"/>
</g>
</svg>
